<svg version="1.1" id="Layer_1" xmlns="http://www.w3.org/2000/svg" xmlns:xlink="http://www.w3.org/1999/xlink" x="0px" y="0px"
	 width="100%" viewBox="0 0 2084 2085" enable-background="new 0 0 2084 2085" xml:space="preserve">
<path fill="#FFFFFF" opacity="1.000000" stroke="none" 
	d="
M948.000000,2088.000000 
	C632.733459,2088.000000 317.466888,2088.000000 2.100170,2088.000000 
	C2.100170,1392.880737 2.100170,697.761414 2.100170,2.000000 
	C310.720093,2.000000 619.440674,2.000000 929.216431,2.929026 
	C930.289001,72.568932 930.299194,141.279816 930.342224,209.990677 
	C930.344727,213.961792 930.615417,217.932755 930.668945,222.365662 
	C930.842346,223.487961 931.330933,223.832581 932.409546,224.417572 
	C1003.164612,295.363342 1073.552490,365.752899 1144.558105,436.710083 
	C1148.805664,437.518524 1152.435303,437.965240 1156.065308,437.968811 
	C1203.714600,438.015686 1251.363770,437.991577 1299.013062,438.001678 
	C1416.636353,438.026642 1534.259644,438.060150 1652.255615,438.143005 
	C1652.628296,438.195770 1653.380981,438.181213 1653.504150,439.098877 
	C1653.644287,441.349213 1653.676147,442.681885 1653.676147,444.014587 
	C1653.678589,843.576111 1653.679443,1243.137573 1653.665649,1642.699097 
	C1653.665527,1645.691528 1653.463501,1648.683960 1652.465698,1651.746582 
	C1643.579102,1651.878784 1635.582520,1651.972290 1627.585815,1651.997192 
	C1591.595825,1652.109009 1555.605713,1652.201660 1519.046631,1651.962891 
	C1229.451904,1362.607056 940.426270,1073.589600 649.679138,782.850647 
	C649.679138,789.142273 649.679138,792.733276 649.679138,796.324280 
	C649.679138,889.322815 649.790222,982.321655 649.490051,1075.319214 
	C649.463074,1083.688232 651.947266,1089.367432 657.839050,1095.252441 
	C912.541687,1349.658081 1167.074463,1604.233765 1421.638672,1858.778076 
	C1424.219727,1861.359009 1426.944580,1863.796143 1430.227905,1866.905518 
	C1434.828979,1867.673706 1438.804321,1867.978271 1442.779663,1867.979248 
	C1545.219360,1868.005371 1647.658936,1868.000000 1750.098633,1868.000000 
	C1786.019043,1868.000000 1821.939697,1868.054443 1857.859497,1867.910400 
	C1861.214600,1867.896973 1864.564575,1866.627686 1868.086304,1865.020996 
	C1868.276978,1862.768188 1868.317139,1861.435913 1868.317139,1860.103638 
	C1868.320190,1317.080811 1868.321289,774.057922 1868.305664,231.035110 
	C1868.305542,228.046112 1868.068726,225.057114 1867.452393,221.379471 
	C1863.327637,220.460724 1859.693359,220.037186 1856.058472,220.030945 
	C1825.059570,219.977859 1794.060791,220.002899 1763.061890,220.000122 
	C1556.736206,219.981598 1350.410522,219.961990 1143.913574,219.022385 
	C1143.720337,149.713104 1143.693359,81.324165 1143.690552,12.935225 
	C1143.690308,9.290154 1143.892212,5.645077 1144.000000,2.000001 
	C1457.933472,2.000000 1771.866821,2.000000 2085.900146,2.000000 
	C2085.900146,697.119263 2085.900146,1392.238647 2085.900146,2088.000000 
	C1777.946533,2088.000000 1469.892700,2088.000000 1161.054199,2087.070801 
	C1160.286621,2067.477783 1160.316040,2048.813721 1160.318481,2030.149536 
	C1160.325195,1978.156250 1160.301392,1926.162964 1160.351074,1874.169678 
	C1160.355957,1869.107788 1160.150879,1864.721069 1155.793335,1860.719849 
	C1143.125000,1849.087158 1130.867676,1836.995972 1118.675781,1824.857178 
	C1085.945068,1792.268799 1053.327881,1759.566406 1020.674255,1726.900757 
	C996.429382,1702.646606 972.197998,1678.379150 947.421753,1653.468994 
	C942.927002,1652.546875 938.971130,1652.035522 935.015076,1652.034180 
	C769.371704,1651.974976 603.728271,1651.961548 437.913574,1651.021973 
	C437.720551,1648.769531 437.679840,1647.437500 437.679840,1646.105347 
	C437.676727,1246.394409 437.675537,846.683350 437.694000,446.972351 
	C437.694153,443.986542 437.964020,441.000732 439.037811,438.010010 
	C484.027374,437.997162 528.087097,437.989288 572.744690,438.263428 
	C574.285339,439.491180 575.226807,440.438202 576.171082,441.382446 
	C861.433228,726.632996 1146.692749,1011.886047 1432.001953,1297.089600 
	C1434.528076,1299.614746 1437.718140,1301.475830 1440.762939,1303.771118 
	C1440.992188,1301.289795 1441.630493,1297.589111 1441.632690,1293.888184 
	C1441.687866,1200.280029 1441.678833,1106.671875 1441.664551,1013.063660 
	C1441.664062,1010.070435 1441.490845,1007.077148 1441.528564,1003.582703 
	C1441.149048,1002.662354 1440.639160,1002.243164 1439.809814,1001.242310 
	C1181.194214,742.361389 922.898315,484.061798 664.593811,225.770828 
	C663.187988,224.365112 661.661194,223.080414 659.573120,221.153992 
	C655.646240,220.379196 652.337158,220.024445 649.028015,220.023773 
	C510.469604,219.996063 371.911194,219.999191 233.352798,220.005859 
	C230.690247,220.005981 227.999313,219.886124 225.379227,220.243958 
	C224.338776,220.386093 223.455429,221.678360 222.427734,223.352875 
	C222.345261,225.258331 222.327164,226.257874 222.327164,227.257431 
	C222.325317,770.403015 222.324112,1313.548584 222.337296,1856.694214 
	C222.337372,1859.686401 222.539001,1862.678711 222.947144,1866.436035 
	C227.200485,1867.467407 231.153168,1867.966187 235.105911,1867.966919 
	C467.920074,1868.004028 700.734253,1867.997192 933.548401,1868.019043 
	C938.202942,1868.019531 942.857483,1868.308472 947.581055,1869.367920 
	C947.659912,1938.860107 947.664429,2007.447021 947.693176,2076.033936 
	C947.694824,2080.022705 947.893127,2084.011230 948.000000,2088.000000 
z"/>
<path fill="#4B4184" opacity="1.000000" stroke="none" 
	d="
M948.937317,2088.000000 
	C947.893127,2084.011230 947.694824,2080.022705 947.693176,2076.033936 
	C947.664429,2007.447021 947.659912,1938.860107 947.234070,1868.616821 
	C942.882812,1866.640259 938.947754,1866.040649 935.012512,1866.039795 
	C702.215759,1865.995117 469.419067,1866.001953 236.622330,1865.986328 
	C231.963730,1865.986084 227.305115,1865.780518 222.646515,1865.670898 
	C222.539001,1862.678711 222.337372,1859.686401 222.337296,1856.694214 
	C222.324112,1313.548584 222.325317,770.403015 222.327164,227.257431 
	C222.327164,226.257874 222.345261,225.258331 223.321594,223.239075 
	C228.284546,222.145828 232.280792,222.008301 236.277054,222.007965 
	C373.252686,221.996841 510.228333,222.001099 647.203979,221.987808 
	C651.532959,221.987396 655.861938,221.825699 660.190918,221.739197 
	C661.661194,223.080414 663.187988,224.365112 664.593811,225.770828 
	C922.898315,484.061798 1181.194214,742.361389 1439.836182,1001.705200 
	C1440.378662,1003.384766 1440.784058,1003.829468 1441.398193,1004.083923 
	C1441.490845,1007.077148 1441.664062,1010.070435 1441.664551,1013.063660 
	C1441.678833,1106.671875 1441.687866,1200.280029 1441.632690,1293.888184 
	C1441.630493,1297.589111 1440.992188,1301.289795 1440.762939,1303.771118 
	C1437.718140,1301.475830 1434.528076,1299.614746 1432.001953,1297.089600 
	C1146.692749,1011.886047 861.433228,726.632996 576.171082,441.382446 
	C575.226807,440.438202 574.285339,439.491180 572.242188,437.552612 
	C570.499268,436.404572 569.856934,436.114197 569.214355,436.113495 
	C526.814880,436.065918 484.415405,436.023895 442.016083,436.099579 
	C440.712250,436.101898 439.410614,437.348419 438.107971,438.014893 
	C437.964020,441.000732 437.694153,443.986542 437.694000,446.972351 
	C437.675537,846.683350 437.676727,1246.394409 437.679840,1646.105347 
	C437.679840,1647.437500 437.720551,1648.769531 438.343506,1651.759521 
	C442.914398,1653.611572 446.884094,1653.974365 450.853821,1653.975342 
	C569.307983,1654.005615 687.762146,1653.988892 806.216309,1654.005249 
	C853.464355,1654.011719 900.712463,1654.078491 947.960571,1654.117798 
	C972.197998,1678.379150 996.429382,1702.646606 1020.674255,1726.900757 
	C1053.327881,1759.566406 1085.945068,1792.268799 1118.675781,1824.857178 
	C1130.867676,1836.995972 1143.125000,1849.087158 1155.793335,1860.719849 
	C1160.150879,1864.721069 1160.355957,1869.107788 1160.351074,1874.169678 
	C1160.301392,1926.162964 1160.325195,1978.156250 1160.318481,2030.149536 
	C1160.316040,2048.813721 1160.286621,2067.477783 1160.134766,2087.070801 
	C1089.958252,2088.000000 1019.916443,2088.000000 948.937317,2088.000000 
z"/>
<path fill="#4B4184" opacity="1.000000" stroke="none" 
	d="
M1143.940430,436.142426 
	C1073.552490,365.752899 1003.164612,295.363342 932.346191,224.005692 
	C931.721008,222.466171 931.336243,222.088242 930.761353,221.903778 
	C930.615417,217.932755 930.344727,213.961792 930.342224,209.990677 
	C930.299194,141.279816 930.289001,72.568932 930.135864,2.929026 
	C1000.708435,2.000000 1071.416870,2.000000 1143.062744,2.000001 
	C1143.892212,5.645077 1143.690308,9.290154 1143.690552,12.935225 
	C1143.693359,81.324165 1143.720337,149.713104 1144.343750,219.759857 
	C1148.916626,221.611404 1152.888428,221.973267 1156.860107,221.974411 
	C1263.722290,222.005173 1370.584595,221.990067 1477.446777,222.001190 
	C1607.612061,222.014725 1737.777222,222.045059 1867.942627,222.068130 
	C1868.068726,225.057114 1868.305542,228.046112 1868.305664,231.035110 
	C1868.321289,774.057922 1868.320190,1317.080811 1868.317139,1860.103638 
	C1868.317139,1861.435913 1868.276978,1862.768188 1867.155396,1865.041992 
	C1725.227783,1865.989014 1584.400269,1865.991699 1443.572876,1866.012695 
	C1438.916016,1866.013428 1434.259033,1866.200317 1429.602173,1866.300537 
	C1426.944580,1863.796143 1424.219727,1861.359009 1421.638672,1858.778076 
	C1167.074463,1604.233765 912.541687,1349.658081 657.839050,1095.252441 
	C651.947266,1089.367432 649.463074,1083.688232 649.490051,1075.319214 
	C649.790222,982.321655 649.679138,889.322815 649.679138,796.324280 
	C649.679138,792.733276 649.679138,789.142273 649.679138,782.850647 
	C940.426270,1073.589600 1229.451904,1362.607056 1519.670898,1652.569336 
	C1563.754517,1653.669189 1606.644531,1653.844116 1649.534790,1653.882080 
	C1650.807739,1653.883179 1652.082031,1652.444092 1653.355713,1651.676514 
	C1653.463501,1648.683960 1653.665527,1645.691528 1653.665649,1642.699097 
	C1653.679443,1243.137573 1653.678589,843.576111 1653.676147,444.014587 
	C1653.676147,442.681885 1653.644287,441.349213 1653.620850,438.607910 
	C1653.072632,436.928802 1652.531006,436.658295 1651.065430,436.224731 
	C1482.405029,436.045258 1314.668457,436.028595 1146.931885,436.017731 
	C1145.934692,436.017670 1144.937622,436.099060 1143.940430,436.142426 
z"/>
<path fill="#78A0C1" opacity="1.000000" stroke="none" 
	d="
M222.947144,1866.436035 
	C227.305115,1865.780518 231.963730,1865.986084 236.622330,1865.986328 
	C469.419067,1866.001953 702.215759,1865.995117 935.012512,1866.039795 
	C938.947754,1866.040649 942.882812,1866.640259 947.165039,1867.711670 
	C942.857483,1868.308472 938.202942,1868.019531 933.548401,1868.019043 
	C700.734253,1867.997192 467.920074,1868.004028 235.105911,1867.966919 
	C231.153168,1867.966187 227.200485,1867.467407 222.947144,1866.436035 
z"/>
<path fill="#D2A0C1" opacity="1.000000" stroke="none" 
	d="
M1867.452393,221.379471 
	C1737.777222,222.045059 1607.612061,222.014725 1477.446777,222.001190 
	C1370.584595,221.990067 1263.722290,222.005173 1156.860107,221.974411 
	C1152.888428,221.973267 1148.916626,221.611404 1144.514893,220.680176 
	C1350.410522,219.961990 1556.736206,219.981598 1763.061890,220.000122 
	C1794.060791,220.002899 1825.059570,219.977859 1856.058472,220.030945 
	C1859.693359,220.037186 1863.327637,220.460724 1867.452393,221.379471 
z"/>
<path fill="#D2A0C1" opacity="1.000000" stroke="none" 
	d="
M947.421753,1653.468994 
	C900.712463,1654.078491 853.464355,1654.011719 806.216309,1654.005249 
	C687.762146,1653.988892 569.307983,1654.005615 450.853821,1653.975342 
	C446.884094,1653.974365 442.914398,1653.611572 438.514801,1652.679932 
	C603.728271,1651.961548 769.371704,1651.974976 935.015076,1652.034180 
	C938.971130,1652.035522 942.927002,1652.546875 947.421753,1653.468994 
z"/>
<path fill="#D2FFFF" opacity="1.000000" stroke="none" 
	d="
M1144.558105,436.710083 
	C1144.937622,436.099060 1145.934692,436.017670 1146.931885,436.017731 
	C1314.668457,436.028595 1482.405029,436.045258 1651.050293,436.650940 
	C1651.958862,437.240173 1651.882935,438.090240 1651.882935,438.090240 
	C1534.259644,438.060150 1416.636353,438.026642 1299.013062,438.001678 
	C1251.363770,437.991577 1203.714600,438.015686 1156.065308,437.968811 
	C1152.435303,437.965240 1148.805664,437.518524 1144.558105,436.710083 
z"/>
<path fill="#D2A0C1" opacity="1.000000" stroke="none" 
	d="
M659.573120,221.153992 
	C655.861938,221.825699 651.532959,221.987396 647.203979,221.987808 
	C510.228333,222.001099 373.252686,221.996841 236.277054,222.007965 
	C232.280792,222.008301 228.284546,222.145828 223.394424,222.333191 
	C223.455429,221.678360 224.338776,220.386093 225.379227,220.243958 
	C227.999313,219.886124 230.690247,220.005981 233.352798,220.005859 
	C371.911194,219.999191 510.469604,219.996063 649.028015,220.023773 
	C652.337158,220.024445 655.646240,220.379196 659.573120,221.153992 
z"/>
<path fill="#78A0C1" opacity="1.000000" stroke="none" 
	d="
M1430.227905,1866.905518 
	C1434.259033,1866.200317 1438.916016,1866.013428 1443.572876,1866.012695 
	C1584.400269,1865.991699 1725.227783,1865.989014 1866.986084,1865.962646 
	C1864.564575,1866.627686 1861.214600,1867.896973 1857.859497,1867.910400 
	C1821.939697,1868.054443 1786.019043,1868.000000 1750.098633,1868.000000 
	C1647.658936,1868.000000 1545.219360,1868.005371 1442.779663,1867.979248 
	C1438.804321,1867.978271 1434.828979,1867.673706 1430.227905,1866.905518 
z"/>
<path fill="#D2FFFF" opacity="1.000000" stroke="none" 
	d="
M439.037781,438.009979 
	C439.410614,437.348419 440.712250,436.101898 442.016083,436.099579 
	C484.415405,436.023895 526.814880,436.065918 569.214355,436.113495 
	C569.856934,436.114197 570.499268,436.404572 571.644287,437.270599 
	C528.087097,437.989288 484.027374,437.997162 439.037781,438.009979 
z"/>
<path fill="#D1A0C1" opacity="1.000000" stroke="none" 
	d="
M1652.465820,1651.746582 
	C1652.082031,1652.444092 1650.807739,1653.883179 1649.534790,1653.882080 
	C1606.644531,1653.844116 1563.754517,1653.669189 1520.240112,1652.907715 
	C1555.605713,1652.201660 1591.595825,1652.109009 1627.585815,1651.997192 
	C1635.582520,1651.972290 1643.579102,1651.878784 1652.465820,1651.746582 
z"/>
<path fill="#7871A3" opacity="1.000000" stroke="none" 
	d="
M930.668945,222.365662 
	C931.336243,222.088242 931.721008,222.466171 931.979004,223.449478 
	C931.330933,223.832581 930.842346,223.487961 930.668945,222.365662 
z"/>
<path fill="#D2D0E0" opacity="1.000000" stroke="none" 
	d="
M1652.255615,438.143005 
	C1651.882935,438.090240 1651.958862,437.240173 1651.974121,436.813965 
	C1652.531006,436.658295 1653.072632,436.928802 1653.497681,437.690247 
	C1653.380981,438.181213 1652.628296,438.195770 1652.255615,438.143005 
z"/>
<path fill="#7871A3" opacity="1.000000" stroke="none" 
	d="
M1441.528564,1003.582703 
	C1440.784058,1003.829468 1440.378662,1003.384766 1440.155518,1002.286865 
	C1440.639160,1002.243164 1441.149048,1002.662354 1441.528564,1003.582703 
z"/>
</svg>